<svg width="32" height="32" viewBox="0 0 32 32" fill="none" xmlns="http://www.w3.org/2000/svg">
    <g transform="matrix(0.961732,0,0,0.961732,0.612291,0.612291)">
        <path d="M16,0C24.831,0 32,7.169 32,16C32,24.831 24.831,32 16,32C7.169,32 0,24.831 0,16C0,7.169 7.169,0 16,0ZM6.091,13.202C5.983,13.279 5.922,13.403 5.922,13.529L5.922,13.534C5.922,13.588 5.933,13.642 5.956,13.693L7.885,18.064C7.971,18.258 8.191,18.353 8.391,18.282C9.654,17.831 14.029,16.406 16.859,17.175C16.859,17.175 14.02,17.339 11.452,19.353C11.307,19.467 11.259,19.664 11.333,19.832C11.542,20.303 11.96,21.25 12.197,21.785L12.529,22.566C12.609,22.751 12.862,22.773 12.973,22.605C13.572,21.703 14.583,21.252 15.553,20.859C16.547,20.456 17.584,20.156 18.643,19.977C19.77,19.786 20.922,19.735 22.061,19.836C22.251,19.853 22.427,19.736 22.484,19.555L23.355,16.77C23.407,16.605 23.348,16.425 23.207,16.323C22.236,15.619 18.386,13.255 11.616,14.205C11.616,14.205 17.393,10.886 24.727,14.532C24.949,14.642 25.217,14.526 25.291,14.29L26.06,11.834C26.072,11.796 26.078,11.757 26.078,11.719L26.078,11.707C26.076,11.567 26.001,11.435 25.874,11.363C24.954,10.842 21.837,9.281 17.55,9.281C14.265,9.281 10.292,10.198 6.091,13.202Z" style="fill:white;"></path>
    </g>
</svg>
