<svg width="32" height="32" viewBox="0 0 32 32" fill="none" xmlns="http://www.w3.org/2000/svg">
    <path d="M7.333,8.667L24.667,8.667C28.717,8.667 32,11.95 32,16C32,20.05 28.717,23.333 24.667,23.333L7.333,23.333C3.283,23.333 0,20.05 0,16C0,11.95 3.283,8.667 7.333,8.667ZM10.58,14.136C9.552,14.136 8.717,14.971 8.717,16C8.717,17.029 9.552,17.864 10.58,17.864C11.609,17.864 12.444,17.029 12.444,16C12.444,14.971 11.609,14.136 10.58,14.136ZM15.923,14.136C14.895,14.136 14.06,14.971 14.06,16C14.06,17.029 14.895,17.864 15.923,17.864C16.952,17.864 17.787,17.029 17.787,16C17.787,14.971 16.952,14.136 15.923,14.136ZM21.27,14.136C20.242,14.136 19.407,14.971 19.407,16C19.407,17.029 20.242,17.864 21.27,17.864C22.299,17.864 23.134,17.029 23.134,16C23.134,14.971 22.299,14.136 21.27,14.136Z" style="fill:white;"></path>
</svg>
