<?xml version="1.0" encoding="UTF-8" standalone="no"?>
<!DOCTYPE svg PUBLIC "-//W3C//DTD SVG 1.1//EN" "http://www.w3.org/Graphics/SVG/1.1/DTD/svg11.dtd">
<svg width="100%" height="100%" viewBox="0 0 32 32" version="1.1" xmlns="http://www.w3.org/2000/svg" xmlns:xlink="http://www.w3.org/1999/xlink" xml:space="preserve" xmlns:serif="http://www.serif.com/" style="fill-rule:evenodd;clip-rule:evenodd;stroke-linejoin:round;stroke-miterlimit:2;">
    <g transform="matrix(1,0,0,1,2.96951,0.422657)">
        <path d="M13.03,5.473C18.607,5.473 23.135,10.001 23.135,15.577C23.135,21.154 18.607,25.681 13.03,25.681C7.454,25.681 2.926,21.154 2.926,15.577C2.926,10.001 7.454,5.473 13.03,5.473ZM19.342,20.649C19.342,19.381 18.314,18.352 17.046,18.352C15.777,18.352 14.749,19.381 14.749,20.649C14.749,21.917 15.777,22.945 17.046,22.945C18.314,22.945 19.342,21.917 19.342,20.649ZM9.965,8.209C7.366,8.209 5.257,10.319 5.257,12.917C5.257,15.516 7.366,17.625 9.965,17.625C12.563,17.625 14.673,15.516 14.673,12.917C14.673,10.319 12.563,8.209 9.965,8.209ZM20.682,13.377C20.682,12.848 20.253,12.42 19.725,12.42C19.197,12.42 18.768,12.848 18.768,13.377C18.768,13.905 19.197,14.333 19.725,14.333C20.253,14.333 20.682,13.905 20.682,13.377ZM18.96,15.711C18.96,14.654 18.103,13.798 17.046,13.798C15.989,13.798 15.132,14.654 15.132,15.711C15.132,16.768 15.989,17.625 17.046,17.625C18.103,17.625 18.96,16.768 18.96,15.711Z" style="fill:white;"/>
    </g>
</svg>
